<svg xmlns="http://www.w3.org/2000/svg" xmlns:xlink="http://www.w3.org/1999/xlink" width="500" zoomAndPan="magnify" viewBox="0 0 375 374.999991" height="500" preserveAspectRatio="xMidYMid meet" version="1.0"><defs><clipPath id="d23948bb12"><path d="M 40 41 L 335 41 L 335 334 L 40 334 Z M 40 41 " clip-rule="nonzero"/></clipPath><clipPath id="476516e2a1"><path d="M 73.039062 38.636719 L 336.808594 73.621094 L 301.960938 336.363281 L 38.191406 301.378906 Z M 73.039062 38.636719 " clip-rule="nonzero"/></clipPath><clipPath id="d7d8bfdc87"><path d="M 92.371094 41.203125 L 317.476562 71.058594 C 322.605469 71.738281 327.25 74.425781 330.394531 78.53125 C 333.539062 82.636719 334.921875 87.824219 334.242188 92.953125 L 304.523438 317.03125 C 303.84375 322.160156 301.15625 326.804688 297.050781 329.949219 C 292.945312 333.09375 287.757812 334.480469 282.628906 333.800781 L 57.523438 303.945312 C 52.394531 303.265625 47.75 300.574219 44.605469 296.46875 C 41.460938 292.363281 40.074219 287.175781 40.757812 282.050781 L 70.476562 57.96875 C 71.15625 52.839844 73.84375 48.195312 77.949219 45.050781 C 82.054688 41.90625 87.242188 40.519531 92.371094 41.203125 Z M 92.371094 41.203125 " clip-rule="nonzero"/></clipPath><clipPath id="3f18804cc3"><path d="M 71.972656 72.425781 L 303.027344 72.425781 L 303.027344 302.574219 L 71.972656 302.574219 Z M 71.972656 72.425781 " clip-rule="nonzero"/></clipPath><clipPath id="b0f4520786"><path d="M 93.722656 72.425781 L 281.277344 72.425781 C 293.289062 72.425781 303.027344 82.160156 303.027344 94.175781 L 303.027344 280.824219 C 303.027344 292.839844 293.289062 302.574219 281.277344 302.574219 L 93.722656 302.574219 C 81.710938 302.574219 71.972656 292.839844 71.972656 280.824219 L 71.972656 94.175781 C 71.972656 82.160156 81.710938 72.425781 93.722656 72.425781 Z M 93.722656 72.425781 " clip-rule="nonzero"/></clipPath><clipPath id="055060d4be"><path d="M 92.203125 103 L 282.703125 103 L 282.703125 271 L 92.203125 271 Z M 92.203125 103 " clip-rule="nonzero"/></clipPath></defs><g clip-path="url(#d23948bb12)"><g clip-path="url(#476516e2a1)"><g clip-path="url(#d7d8bfdc87)"><path fill="#e5e4e7" d="M 73.039062 38.636719 L 336.808594 73.621094 L 301.960938 336.363281 L 38.191406 301.378906 Z M 73.039062 38.636719 " fill-opacity="1" fill-rule="nonzero"/></g></g></g><g clip-path="url(#3f18804cc3)"><g clip-path="url(#b0f4520786)"><path fill="#737373" d="M 71.972656 72.425781 L 303.027344 72.425781 L 303.027344 302.574219 L 71.972656 302.574219 Z M 71.972656 72.425781 " fill-opacity="1" fill-rule="nonzero"/></g></g><path fill="#ffffff" d="M 187.496094 170.042969 C 178.078125 170.042969 170.445312 177.671875 170.445312 187.089844 C 170.445312 196.507812 178.078125 204.140625 187.496094 204.140625 C 196.914062 204.140625 204.546875 196.507812 204.546875 187.089844 C 204.546875 177.671875 196.914062 170.042969 187.496094 170.042969 Z M 187.496094 170.042969 " fill-opacity="1" fill-rule="nonzero"/><g clip-path="url(#055060d4be)"><path fill="#ffffff" d="M 128.050781 217.28125 C 129.726562 217.839844 131.402344 218.402344 133.117188 218.886719 C 132.5625 221.117188 132.078125 223.316406 131.625 225.589844 C 127.71875 246.25 130.765625 262.625 140.519531 268.246094 C 150.570312 274.050781 167.46875 268.097656 183.921875 253.691406 C 185.226562 252.539062 186.527344 251.347656 187.828125 250.078125 C 189.464844 251.683594 191.179688 253.207031 192.886719 254.691406 C 208.816406 268.390625 224.5625 273.933594 234.285156 268.320312 C 244.335938 262.515625 247.609375 244.910156 243.367188 223.46875 C 243.035156 221.832031 242.660156 220.15625 242.25 218.441406 C 243.441406 218.109375 244.589844 217.734375 245.75 217.363281 C 267.230469 210.253906 282.785156 198.75 282.785156 186.949219 C 282.785156 175.671875 268.121094 164.730469 247.871094 157.765625 L 247.871094 157.757812 C 245.863281 157.089844 243.851562 156.457031 241.84375 155.859375 C 242.175781 154.484375 242.480469 153.105469 242.773438 151.730469 C 247.355469 129.542969 244.335938 111.722656 234.171875 105.839844 C 224.382812 100.21875 208.414062 106.0625 192.261719 120.132812 C 190.65625 121.507812 189.101562 122.960938 187.605469 124.414062 C 186.597656 123.445312 185.558594 122.476562 184.519531 121.546875 C 167.582031 106.507812 150.609375 100.179688 140.445312 106.101562 C 130.695312 111.765625 127.789062 128.550781 131.886719 149.53125 C 132.296875 151.621094 132.742188 153.660156 133.257812 155.75 C 130.878906 156.414062 128.535156 157.164062 126.335938 157.949219 C 106.460938 164.832031 92.203125 175.703125 92.203125 186.949219 C 92.203125 198.566406 107.386719 210.207031 128.050781 217.28125 Z M 178.671875 247.609375 C 172.535156 253.230469 165.421875 257.695312 157.679688 260.75 C 153.546875 262.722656 148.785156 262.910156 144.535156 261.234375 C 138.621094 257.8125 136.15625 244.671875 139.507812 226.988281 C 139.921875 224.90625 140.367188 222.816406 140.882812 220.769531 C 149.222656 222.554688 157.628906 223.785156 166.160156 224.414062 C 171.074219 231.378906 176.464844 238.039062 182.238281 244.289062 C 181.046875 245.441406 179.855469 246.5625 178.664062 247.601562 Z M 225.945312 177.714844 C 224.199219 174.433594 222.414062 171.160156 220.546875 167.960938 C 218.71875 164.800781 216.820312 161.671875 214.851562 158.582031 C 220.847656 159.332031 226.582031 160.332031 231.941406 161.5625 C 230.226562 167.074219 228.21875 172.433594 225.945312 177.714844 Z M 226.015625 196.246094 C 228.398438 201.648438 230.488281 207.117188 232.308594 212.742188 C 226.535156 214.042969 220.695312 215.050781 214.8125 215.71875 C 216.820312 212.589844 218.71875 209.390625 220.585938 206.191406 C 222.484375 202.910156 224.269531 199.597656 226.015625 196.246094 Z M 221.714844 186.988281 C 219.21875 192.125 216.535156 197.183594 213.675781 202.171875 C 210.851562 207.117188 207.832031 211.921875 204.671875 216.6875 C 199.128906 217.101562 193.355469 217.28125 187.511719 217.28125 C 181.667969 217.28125 176.011719 217.101562 170.542969 216.757812 C 167.300781 212.035156 164.253906 207.191406 161.386719 202.242188 C 158.519531 197.296875 155.875 192.269531 153.382812 187.132812 L 153.367188 187.132812 C 155.820312 181.992188 158.503906 176.96875 161.332031 172.019531 C 164.15625 167.074219 167.214844 162.269531 170.414062 157.542969 C 175.996094 157.128906 181.691406 156.90625 187.503906 156.90625 C 193.316406 156.90625 199.042969 157.128906 204.59375 157.542969 C 207.753906 162.238281 210.769531 167.03125 213.636719 171.949219 C 216.503906 176.863281 219.179688 181.890625 221.714844 186.988281 Z M 154.398438 168.035156 C 152.570312 171.195312 150.785156 174.425781 149.109375 177.707031 C 146.765625 172.164062 144.789062 166.730469 143.152344 161.480469 C 148.515625 160.289062 154.207031 159.320312 160.125 158.574219 C 158.164062 161.664062 156.226562 164.824219 154.398438 168.035156 Z M 149.117188 196.542969 C 150.832031 199.820312 152.578125 203.0625 154.4375 206.261719 C 156.335938 209.5 158.273438 212.742188 160.320312 215.902344 C 154.515625 215.265625 148.746094 214.335938 143.050781 213.105469 C 144.6875 207.746094 146.734375 202.203125 149.117188 196.542969 Z M 187.796875 238.558594 C 184.003906 234.46875 180.207031 229.933594 176.523438 225.050781 C 180.09375 225.199219 183.78125 225.269531 187.503906 225.269531 C 191.339844 225.269531 195.09375 225.199219 198.820312 225.007812 C 195.398438 229.734375 191.710938 234.246094 187.796875 238.558594 Z M 236.453125 249.738281 C 236.109375 254.273438 233.878906 258.511719 230.304688 261.378906 C 224.390625 264.800781 211.769531 260.339844 198.144531 248.648438 C 196.582031 247.308594 195.015625 245.855469 193.421875 244.371094 C 199.113281 238.082031 204.363281 231.417969 209.128906 224.421875 C 217.648438 223.714844 226.136719 222.414062 234.515625 220.515625 C 234.886719 222.039062 235.222656 223.5625 235.523438 225.058594 C 237.347656 233.101562 237.644531 241.472656 236.453125 249.738281 Z M 239.683594 163.53125 C 241.621094 164.085938 243.480469 164.683594 245.265625 165.277344 C 262.609375 171.234375 274.78125 180.09375 274.78125 186.871094 C 274.78125 194.167969 261.792969 203.585938 243.21875 209.722656 C 242.175781 210.058594 241.136719 210.390625 240.058594 210.691406 C 237.453125 202.578125 234.253906 194.652344 230.566406 186.941406 C 234.140625 179.347656 237.160156 171.527344 239.683594 163.53125 Z M 197.5 126.160156 C 211.359375 114.105469 224.269531 109.382812 230.15625 112.765625 C 236.445312 116.378906 238.867188 130.964844 234.917969 150.132812 C 234.65625 151.398438 234.394531 152.628906 234.0625 153.859375 C 225.796875 152 217.425781 150.660156 209.007812 149.914062 C 204.171875 142.980469 198.882812 136.355469 193.148438 130.140625 C 194.601562 128.765625 196.015625 127.464844 197.5 126.160156 Z M 187.574219 135.839844 C 191.480469 140.082031 195.167969 144.542969 198.589844 149.15625 C 191.21875 148.824219 183.8125 148.824219 176.441406 149.15625 C 180.085938 144.363281 183.851562 139.898438 187.574219 135.839844 Z M 144.394531 113.027344 C 150.648438 109.382812 164.53125 114.589844 179.15625 127.542969 C 180.085938 128.359375 181.015625 129.257812 181.984375 130.148438 C 176.210938 136.355469 170.890625 142.980469 166.015625 149.902344 C 157.605469 150.652344 149.269531 151.953125 141.003906 153.78125 C 140.519531 151.882812 140.113281 149.945312 139.699219 148.007812 C 136.199219 129.988281 138.507812 116.410156 144.394531 113.027344 Z M 128.949219 165.5 C 131.066406 164.753906 133.226562 164.085938 135.386719 163.453125 C 137.921875 171.527344 140.96875 179.460938 144.503906 187.125 C 140.929688 194.90625 137.839844 202.941406 135.277344 211.128906 L 135.269531 211.136719 C 133.703125 210.691406 132.179688 210.207031 130.65625 209.683594 C 122.730469 207.191406 113.71875 203.242188 107.207031 198.074219 C 103.449219 195.46875 100.917969 191.449219 100.210938 186.941406 C 100.210938 180.128906 111.96875 171.417969 128.949219 165.5 Z M 128.949219 165.5 " fill-opacity="1" fill-rule="nonzero"/></g></svg>